<svg xmlns="http://www.w3.org/2000/svg" xmlns:xlink="http://www.w3.org/1999/xlink" width="500" zoomAndPan="magnify" viewBox="0 0 375 374.999991" height="500" preserveAspectRatio="xMidYMid meet" version="1.0"><defs><clipPath id="049ae501e9"><path d="M 122.84375 112.5 L 251.84375 112.5 L 251.84375 262.5 L 122.84375 262.5 Z M 122.84375 112.5 " clip-rule="nonzero"/></clipPath><clipPath id="75d8bfddda"><path d="M 122.84375 112.5 L 251.84375 112.5 L 251.84375 262.5 L 122.84375 262.5 Z M 122.84375 112.5 " clip-rule="nonzero"/></clipPath><clipPath id="9a6e73e9df"><path d="M 45.703125 0 L 329.203125 0 L 329.203125 375 L 45.703125 375 Z M 45.703125 0 " clip-rule="nonzero"/></clipPath></defs><g clip-path="url(#049ae501e9)"><path fill="#000000" d="M 143.488281 164.226562 L 143.488281 169.398438 L 133.167969 169.398438 L 133.167969 174.570312 L 128.003906 174.570312 L 128.003906 195.257812 L 122.847656 195.257812 L 122.847656 200.429688 L 128.003906 200.429688 L 128.003906 205.601562 L 138.328125 205.601562 L 138.328125 231.464844 L 133.167969 231.464844 L 133.167969 236.636719 L 128.003906 236.636719 L 128.003906 241.808594 L 133.167969 241.808594 L 133.167969 246.980469 L 148.648438 246.980469 L 148.648438 252.15625 L 153.808594 252.15625 L 153.808594 257.328125 L 158.96875 257.328125 L 158.96875 262.5 L 169.285156 262.5 L 169.285156 257.328125 L 200.25 257.328125 L 200.25 262.5 L 231.210938 262.5 L 231.210938 257.328125 L 236.371094 257.328125 L 236.371094 252.15625 L 246.691406 252.15625 L 246.691406 246.980469 L 251.851562 246.980469 L 251.851562 231.464844 L 246.691406 231.464844 L 246.691406 215.949219 L 241.527344 215.949219 L 241.527344 190.085938 L 246.691406 190.085938 L 246.691406 143.535156 L 251.851562 143.535156 L 251.851562 122.847656 L 246.691406 122.847656 L 246.691406 117.671875 L 241.527344 117.671875 L 241.527344 112.5 L 231.210938 112.5 L 231.210938 117.671875 L 226.050781 117.671875 L 226.050781 122.847656 L 210.570312 122.847656 L 210.570312 117.671875 L 174.449219 117.671875 L 174.449219 112.5 L 153.808594 112.5 L 153.808594 117.671875 L 148.648438 117.671875 L 148.648438 122.847656 L 143.488281 122.847656 L 143.488281 138.363281 L 148.648438 138.363281 L 148.648438 164.226562 Z M 143.488281 164.226562 " fill-opacity="1" fill-rule="evenodd"/><path fill="#000000" d="M 148.648438 164.226562 L 143.488281 164.226562 L 143.488281 174.570312 L 138.328125 174.570312 L 138.328125 169.398438 L 133.167969 169.398438 L 133.167969 174.570312 L 128.007812 174.570312 L 128.007812 184.914062 L 133.167969 184.914062 L 133.167969 190.085938 L 128.007812 190.085938 L 128.007812 195.257812 L 122.851562 195.257812 L 122.851562 200.429688 L 128.007812 200.429688 L 128.007812 205.597656 L 133.167969 205.597656 L 133.167969 200.429688 L 143.488281 200.429688 L 143.488281 205.597656 L 138.328125 205.597656 L 138.328125 221.113281 L 143.488281 221.113281 L 143.488281 226.285156 L 138.328125 226.285156 L 138.328125 231.457031 L 133.167969 231.457031 L 133.167969 236.628906 L 128.007812 236.628906 L 128.007812 241.800781 L 133.167969 241.800781 L 133.167969 246.972656 L 143.488281 246.972656 L 143.488281 241.800781 L 148.648438 241.800781 L 148.648438 252.144531 L 153.808594 252.144531 L 153.808594 257.316406 L 158.964844 257.316406 L 158.964844 262.488281 L 169.285156 262.488281 L 169.285156 257.316406 L 200.242188 257.316406 L 200.242188 262.488281 L 231.199219 262.488281 L 231.199219 257.316406 L 236.359375 257.316406 L 236.359375 252.144531 L 246.675781 252.144531 L 246.675781 246.972656 L 251.835938 246.972656 L 251.835938 231.457031 L 246.675781 231.457031 L 246.675781 215.941406 L 241.519531 215.941406 L 241.519531 190.085938 L 246.675781 190.085938 L 246.675781 143.539062 L 251.835938 143.539062 L 251.835938 122.851562 L 246.675781 122.851562 L 246.675781 117.679688 L 241.519531 117.679688 L 241.519531 112.507812 L 231.199219 112.507812 L 231.199219 117.679688 L 226.039062 117.679688 L 226.039062 122.851562 L 210.5625 122.851562 L 210.5625 117.679688 L 184.761719 117.679688 L 184.761719 122.851562 L 179.605469 122.851562 L 179.605469 117.679688 L 174.445312 117.679688 L 174.445312 112.507812 L 153.808594 112.507812 L 153.808594 117.679688 L 148.648438 117.679688 L 148.648438 122.851562 L 143.488281 122.851562 L 143.488281 138.367188 L 148.648438 138.367188 Z M 169.285156 257.328125 L 158.96875 257.328125 L 158.96875 252.15625 L 153.808594 252.15625 L 153.808594 236.640625 L 158.96875 236.640625 L 158.96875 231.46875 L 164.128906 231.46875 L 164.128906 246.984375 L 169.289062 246.984375 L 169.289062 257.328125 Z M 158.964844 231.464844 L 153.808594 231.464844 L 153.808594 226.292969 L 158.964844 226.292969 Z M 153.808594 236.636719 L 148.648438 236.636719 L 148.648438 231.464844 L 153.808594 231.464844 Z M 164.128906 195.257812 L 164.128906 200.429688 L 158.96875 200.429688 L 158.96875 184.917969 L 164.128906 184.917969 Z M 164.128906 200.429688 L 169.285156 200.429688 L 169.285156 205.601562 L 164.128906 205.601562 Z M 169.285156 200.429688 L 169.285156 190.089844 L 174.445312 190.089844 L 174.445312 184.917969 L 184.765625 184.917969 L 184.765625 190.089844 L 179.605469 190.089844 L 179.605469 195.257812 L 174.445312 195.257812 L 174.445312 200.429688 Z M 143.484375 190.085938 L 143.484375 195.257812 L 133.167969 195.257812 L 133.167969 190.085938 Z M 148.644531 190.085938 L 143.484375 190.085938 L 143.484375 184.914062 L 148.644531 184.914062 Z M 153.804688 200.429688 L 158.964844 200.429688 L 158.964844 215.945312 L 153.804688 215.945312 L 153.804688 221.117188 L 143.484375 221.117188 L 143.484375 205.601562 L 153.804688 205.601562 Z M 143.484375 184.914062 L 133.164062 184.914062 L 133.164062 174.570312 L 138.324219 174.570312 L 138.324219 179.742188 L 143.484375 179.742188 Z M 133.164062 200.429688 L 128.003906 200.429688 L 128.003906 195.257812 L 133.164062 195.257812 Z M 195.085938 184.914062 L 200.242188 184.914062 L 200.242188 179.742188 L 189.925781 179.742188 L 189.925781 174.570312 L 195.085938 174.570312 L 195.085938 169.398438 L 179.605469 169.398438 L 179.605469 174.570312 L 184.765625 174.570312 L 184.765625 179.742188 L 174.445312 179.742188 L 174.445312 184.914062 L 169.285156 184.914062 L 169.285156 179.742188 L 158.96875 179.742188 L 158.96875 184.914062 L 148.648438 184.914062 L 148.648438 164.226562 L 153.808594 164.226562 L 153.808594 143.542969 L 158.96875 143.542969 L 158.96875 138.371094 L 164.128906 138.371094 L 164.128906 133.199219 L 169.289062 133.199219 L 169.289062 128.027344 L 184.765625 128.027344 L 184.765625 122.855469 L 210.5625 122.855469 L 210.5625 128.027344 L 226.042969 128.027344 L 226.042969 133.199219 L 231.203125 133.199219 L 231.203125 143.542969 L 236.359375 143.542969 L 236.359375 148.714844 L 241.519531 148.714844 L 241.519531 190.085938 L 236.359375 190.085938 L 236.359375 195.257812 L 220.882812 195.257812 L 220.882812 200.429688 L 179.605469 200.429688 L 179.605469 195.257812 L 184.765625 195.257812 L 184.765625 190.085938 L 189.925781 190.085938 L 189.925781 184.914062 Z M 205.40625 231.464844 L 200.246094 231.464844 L 200.246094 226.292969 L 195.085938 226.292969 L 195.085938 221.121094 L 200.246094 221.121094 L 200.246094 215.949219 L 210.5625 215.949219 L 210.5625 210.777344 L 215.722656 210.777344 L 215.722656 205.605469 L 220.882812 205.605469 L 220.882812 200.433594 L 236.363281 200.433594 L 236.363281 221.121094 L 231.203125 221.121094 L 231.203125 226.292969 L 220.882812 226.292969 L 220.882812 231.464844 Z M 195.085938 231.464844 L 195.085938 236.636719 L 200.242188 236.636719 L 200.242188 241.808594 L 195.085938 241.808594 L 195.085938 252.152344 L 174.445312 252.152344 L 174.445312 246.980469 L 169.285156 246.980469 L 169.285156 205.605469 L 174.445312 205.605469 L 174.445312 200.433594 L 179.605469 200.433594 L 179.605469 205.605469 L 210.5625 205.605469 L 210.5625 210.777344 L 200.242188 210.777344 L 200.242188 215.949219 L 195.085938 215.949219 L 195.085938 221.121094 L 189.925781 221.121094 L 189.925781 231.464844 Z M 241.523438 246.980469 L 241.523438 236.636719 L 246.683594 236.636719 L 246.683594 246.980469 Z M 241.523438 236.636719 L 236.367188 236.636719 L 236.367188 231.464844 L 231.207031 231.464844 L 231.207031 226.292969 L 236.367188 226.292969 L 236.367188 221.121094 L 241.523438 221.121094 Z M 215.722656 241.808594 L 210.5625 241.808594 L 210.5625 236.636719 L 215.722656 236.636719 Z M 210.5625 241.808594 L 210.5625 246.980469 L 215.722656 246.980469 L 215.722656 241.808594 L 220.882812 241.808594 L 220.882812 252.152344 L 215.722656 252.152344 L 215.722656 257.324219 L 200.246094 257.324219 L 200.246094 241.808594 Z M 220.886719 257.324219 L 220.886719 252.152344 L 226.042969 252.152344 L 226.042969 241.808594 L 220.886719 241.808594 L 220.886719 231.464844 L 231.203125 231.464844 L 231.203125 236.636719 L 236.363281 236.636719 L 236.363281 252.152344 L 231.203125 252.152344 L 231.203125 257.324219 Z M 164.125 221.117188 L 158.964844 221.117188 L 158.964844 215.945312 L 164.125 215.945312 Z M 148.644531 231.460938 L 143.484375 231.460938 L 143.484375 226.289062 L 148.644531 226.289062 Z M 143.484375 236.632812 L 143.484375 241.804688 L 133.164062 241.804688 L 133.164062 236.632812 L 138.324219 236.632812 L 138.324219 231.460938 L 143.484375 231.460938 Z M 226.046875 128.015625 L 226.046875 122.84375 L 231.207031 122.84375 L 231.207031 117.671875 L 241.523438 117.671875 L 241.523438 122.84375 L 246.683594 122.84375 L 246.683594 143.53125 L 236.367188 143.53125 L 236.367188 133.1875 L 231.207031 133.1875 L 231.207031 128.015625 Z M 153.804688 138.359375 L 148.644531 138.359375 L 148.644531 122.84375 L 153.804688 122.84375 L 153.804688 117.671875 L 174.441406 117.671875 L 174.441406 122.84375 L 169.285156 122.84375 L 169.285156 128.015625 L 164.125 128.015625 L 164.125 133.1875 L 158.964844 133.1875 L 158.964844 138.359375 Z M 153.804688 138.359375 " fill-opacity="1" fill-rule="evenodd"/></g><path fill="#000000" d="M 164.128906 164.226562 L 164.128906 169.398438 L 174.445312 169.398438 L 174.445312 159.054688 L 164.128906 159.054688 Z M 215.730469 169.398438 L 215.730469 164.226562 L 210.570312 164.226562 L 210.570312 159.054688 L 205.410156 159.054688 L 205.410156 174.570312 L 215.730469 174.570312 Z M 215.730469 169.398438 " fill-opacity="1" fill-rule="evenodd"/><path fill="#000000" d="M 231.210938 128.019531 L 231.210938 133.191406 L 236.371094 133.191406 L 236.371094 138.363281 L 241.527344 138.363281 L 241.527344 128.019531 Z M 164.128906 128.019531 L 169.285156 128.019531 L 169.285156 122.847656 L 158.96875 122.847656 L 158.96875 133.191406 L 164.128906 133.191406 Z M 164.128906 128.019531 " fill-opacity="1" fill-rule="evenodd"/><path fill="#383530" d="M 164.128906 169.398438 L 164.128906 159.054688 L 174.445312 159.054688 L 174.445312 169.398438 Z M 205.410156 169.398438 L 205.410156 159.054688 L 210.570312 159.054688 L 210.570312 164.226562 L 215.726562 164.226562 L 215.726562 174.570312 L 205.410156 174.570312 Z M 200.25 164.226562 L 200.25 174.570312 L 205.410156 174.570312 L 205.410156 179.742188 L 226.046875 179.742188 L 226.046875 159.054688 L 220.886719 159.054688 L 220.886719 153.882812 L 215.726562 153.882812 L 215.726562 148.710938 L 210.570312 148.710938 L 210.570312 153.882812 L 200.25 153.882812 Z M 169.289062 174.570312 L 174.449219 174.570312 L 174.449219 169.398438 L 179.609375 169.398438 L 179.609375 153.882812 L 174.449219 153.882812 L 174.449219 148.714844 L 164.128906 148.714844 L 164.128906 153.882812 L 158.96875 153.882812 L 158.96875 174.570312 Z M 169.289062 174.570312 " fill-opacity="1" fill-rule="evenodd"/><path fill="#ded6c1" d="M 179.609375 195.257812 L 179.609375 200.429688 L 220.890625 200.429688 L 220.890625 195.257812 L 236.371094 195.257812 L 236.371094 190.085938 L 241.527344 190.085938 L 241.527344 179.742188 L 236.371094 179.742188 L 236.371094 190.085938 L 220.890625 190.085938 L 220.890625 195.257812 Z M 179.609375 195.257812 " fill-opacity="1" fill-rule="evenodd"/><path fill="#ded6c1" d="M 174.449219 241.808594 L 169.285156 241.808594 L 169.285156 246.980469 L 174.449219 246.980469 L 174.449219 252.15625 L 195.089844 252.15625 L 195.089844 246.980469 L 174.449219 246.980469 Z M 174.449219 241.808594 " fill-opacity="1" fill-rule="evenodd"/><path fill="#ded6c1" d="M 231.210938 226.292969 L 231.210938 231.464844 L 236.371094 231.464844 L 236.371094 236.636719 L 241.527344 236.636719 L 241.527344 221.121094 L 236.371094 221.121094 L 236.371094 226.292969 Z M 231.210938 226.292969 " fill-opacity="1" fill-rule="evenodd"/><path fill="#383530" d="M 241.527344 236.636719 L 246.691406 236.636719 L 246.691406 246.980469 L 241.527344 246.980469 Z M 241.527344 236.636719 " fill-opacity="1" fill-rule="evenodd"/><path fill="#383530" d="M 236.371094 246.980469 L 236.371094 236.636719 L 231.210938 236.636719 L 231.210938 231.464844 L 220.890625 231.464844 L 220.890625 241.808594 L 226.050781 241.808594 L 226.050781 252.15625 L 220.890625 252.15625 L 220.890625 257.328125 L 231.210938 257.328125 L 231.210938 252.15625 L 236.371094 252.15625 Z M 236.371094 246.980469 " fill-opacity="1" fill-rule="evenodd"/><path fill="#383530" d="M 220.890625 252.15625 L 220.890625 241.808594 L 215.730469 241.808594 L 215.730469 246.980469 L 210.570312 246.980469 L 210.570312 241.808594 L 200.25 241.808594 L 200.25 257.328125 L 215.730469 257.328125 L 215.730469 252.15625 Z M 220.890625 252.15625 " fill-opacity="1" fill-rule="evenodd"/><path fill="#383530" d="M 210.570312 236.636719 L 215.730469 236.636719 L 215.730469 241.808594 L 210.570312 241.808594 Z M 210.570312 236.636719 " fill-opacity="1" fill-rule="evenodd"/><path fill="#383530" d="M 220.890625 226.292969 L 231.210938 226.292969 L 231.210938 221.121094 L 236.371094 221.121094 L 236.371094 200.429688 L 220.890625 200.429688 L 220.890625 205.601562 L 215.730469 205.601562 L 215.730469 210.777344 L 210.570312 210.777344 L 210.570312 215.949219 L 200.25 215.949219 L 200.25 221.121094 L 195.089844 221.121094 L 195.089844 226.292969 L 200.25 226.292969 L 200.25 231.464844 L 220.890625 231.464844 Z M 220.890625 226.292969 " fill-opacity="1" fill-rule="evenodd"/><path fill="#383530" d="M 164.128906 246.980469 L 164.128906 231.464844 L 158.96875 231.464844 L 158.96875 236.636719 L 153.808594 236.636719 L 153.808594 252.15625 L 158.96875 252.15625 L 158.96875 257.328125 L 169.285156 257.328125 L 169.285156 246.980469 Z M 164.128906 246.980469 " fill-opacity="1" fill-rule="evenodd"/><path fill="#383530" d="M 148.648438 221.121094 L 153.808594 221.121094 L 153.808594 215.949219 L 158.96875 215.949219 L 158.96875 200.429688 L 153.808594 200.429688 L 153.808594 205.601562 L 143.488281 205.601562 L 143.488281 221.121094 Z M 148.648438 221.121094 " fill-opacity="1" fill-rule="evenodd"/><path fill="#383530" d="M 158.96875 215.949219 L 164.128906 215.949219 L 164.128906 221.121094 L 158.96875 221.121094 Z M 158.96875 215.949219 " fill-opacity="1" fill-rule="evenodd"/><path fill="#383530" d="M 164.128906 122.847656 L 174.449219 122.847656 L 174.449219 117.671875 L 153.808594 117.671875 L 153.808594 122.847656 L 148.648438 122.847656 L 148.648438 138.363281 L 158.96875 138.363281 L 158.96875 122.847656 Z M 164.128906 122.847656 " fill-opacity="1" fill-rule="evenodd"/><path fill="#383530" d="M 226.050781 122.847656 L 226.050781 128.019531 L 241.527344 128.019531 L 241.527344 138.363281 L 236.371094 138.363281 L 236.371094 143.535156 L 246.691406 143.535156 L 246.691406 122.847656 L 241.527344 122.847656 L 241.527344 117.671875 L 231.210938 117.671875 L 231.210938 122.847656 Z M 226.050781 122.847656 " fill-opacity="1" fill-rule="evenodd"/><path fill="#608537" d="M 143.488281 231.464844 L 138.328125 231.464844 L 138.328125 236.636719 L 133.167969 236.636719 L 133.167969 241.808594 L 143.488281 241.808594 Z M 143.488281 231.464844 " fill-opacity="1" fill-rule="evenodd"/><path fill="#608537" d="M 143.488281 226.292969 L 148.648438 226.292969 L 148.648438 231.464844 L 143.488281 231.464844 Z M 143.488281 226.292969 " fill-opacity="1" fill-rule="evenodd"/><path fill="#608537" d="M 158.96875 195.257812 L 158.96875 200.429688 L 164.128906 200.429688 L 164.128906 184.914062 L 158.96875 184.914062 Z M 158.96875 195.257812 " fill-opacity="1" fill-rule="evenodd"/><path fill="#608537" d="M 164.128906 200.429688 L 169.285156 200.429688 L 169.285156 205.601562 L 164.128906 205.601562 Z M 164.128906 200.429688 " fill-opacity="1" fill-rule="evenodd"/><path fill="#608537" d="M 169.285156 195.257812 L 169.285156 200.429688 L 174.449219 200.429688 L 174.449219 195.257812 L 179.609375 195.257812 L 179.609375 190.085938 L 184.765625 190.085938 L 184.765625 184.914062 L 174.449219 184.914062 L 174.449219 190.085938 L 169.285156 190.085938 Z M 169.285156 195.257812 " fill-opacity="1" fill-rule="evenodd"/><path fill="#608537" d="M 133.167969 190.085938 L 143.488281 190.085938 L 143.488281 195.257812 L 133.167969 195.257812 Z M 133.167969 190.085938 " fill-opacity="1" fill-rule="evenodd"/><path fill="#608537" d="M 128.003906 195.257812 L 133.167969 195.257812 L 133.167969 200.429688 L 128.003906 200.429688 Z M 128.003906 195.257812 " fill-opacity="1" fill-rule="evenodd"/><path fill="#608537" d="M 143.488281 184.914062 L 148.648438 184.914062 L 148.648438 190.085938 L 143.488281 190.085938 Z M 143.488281 184.914062 " fill-opacity="1" fill-rule="evenodd"/><path fill="#608537" d="M 138.328125 184.914062 L 143.488281 184.914062 L 143.488281 179.742188 L 138.328125 179.742188 L 138.328125 174.570312 L 133.167969 174.570312 L 133.167969 184.914062 Z M 138.328125 184.914062 " fill-opacity="1" fill-rule="evenodd"/><path fill="#fff9e9" d="M 169.285156 215.949219 L 169.285156 241.808594 L 174.449219 241.808594 L 174.449219 246.980469 L 195.089844 246.980469 L 195.089844 241.808594 L 200.25 241.808594 L 200.25 236.636719 L 195.089844 236.636719 L 195.089844 231.464844 L 189.929688 231.464844 L 189.929688 221.121094 L 195.089844 221.121094 L 195.089844 215.949219 L 200.25 215.949219 L 200.25 210.777344 L 169.285156 210.777344 Z M 169.285156 215.949219 " fill-opacity="1" fill-rule="evenodd"/><path fill="#383530" d="M 174.449219 210.777344 L 210.570312 210.777344 L 210.570312 205.601562 L 179.609375 205.601562 L 179.609375 200.429688 L 174.449219 200.429688 L 174.449219 205.601562 L 169.285156 205.601562 L 169.285156 210.777344 Z M 174.449219 210.777344 " fill-opacity="1" fill-rule="evenodd"/><path fill="#fff9e9" d="M 179.609375 169.398438 L 174.449219 169.398438 L 174.449219 174.570312 L 158.96875 174.570312 L 158.96875 153.882812 L 164.128906 153.882812 L 164.128906 148.710938 L 174.449219 148.710938 L 174.449219 153.882812 L 179.609375 153.882812 Z M 174.449219 179.742188 L 184.769531 179.742188 L 184.769531 174.570312 L 179.609375 174.570312 L 179.609375 169.398438 L 195.085938 169.398438 L 195.085938 174.570312 L 189.925781 174.570312 L 189.925781 179.742188 L 200.246094 179.742188 L 200.246094 184.914062 L 189.925781 184.914062 L 189.925781 190.085938 L 184.769531 190.085938 L 184.769531 195.257812 L 220.882812 195.257812 L 220.882812 190.085938 L 236.363281 190.085938 L 236.363281 179.742188 L 241.523438 179.742188 L 241.523438 148.714844 L 236.363281 148.714844 L 236.363281 143.542969 L 231.203125 143.542969 L 231.203125 133.199219 L 226.042969 133.199219 L 226.042969 128.027344 L 210.566406 128.027344 L 210.566406 122.855469 L 184.769531 122.855469 L 184.769531 128.027344 L 169.289062 128.027344 L 169.289062 133.199219 L 164.128906 133.199219 L 164.128906 138.371094 L 158.96875 138.371094 L 158.96875 143.542969 L 153.8125 143.542969 L 153.8125 164.226562 L 148.652344 164.226562 L 148.652344 184.914062 L 158.96875 184.914062 L 158.96875 179.742188 L 169.289062 179.742188 L 169.289062 184.914062 L 174.449219 184.914062 Z M 200.25 174.570312 L 200.25 153.882812 L 210.570312 153.882812 L 210.570312 148.714844 L 215.726562 148.714844 L 215.726562 153.882812 L 220.886719 153.882812 L 220.886719 159.054688 L 226.046875 159.054688 L 226.046875 179.742188 L 205.410156 179.742188 L 205.410156 174.570312 Z M 200.25 174.570312 " fill-opacity="1" fill-rule="evenodd"/><g clip-path="url(#75d8bfddda)"><path fill="#000000" d="M 148.648438 164.226562 L 143.488281 164.226562 L 143.488281 174.570312 L 138.328125 174.570312 L 138.328125 169.398438 L 133.167969 169.398438 L 133.167969 174.570312 L 128.007812 174.570312 L 128.007812 184.914062 L 133.167969 184.914062 L 133.167969 190.085938 L 128.007812 190.085938 L 128.007812 195.257812 L 122.851562 195.257812 L 122.851562 200.429688 L 128.007812 200.429688 L 128.007812 205.597656 L 133.167969 205.597656 L 133.167969 200.429688 L 143.488281 200.429688 L 143.488281 205.597656 L 138.328125 205.597656 L 138.328125 221.113281 L 143.488281 221.113281 L 143.488281 226.285156 L 138.328125 226.285156 L 138.328125 231.457031 L 133.167969 231.457031 L 133.167969 236.628906 L 128.007812 236.628906 L 128.007812 241.800781 L 133.167969 241.800781 L 133.167969 246.972656 L 143.488281 246.972656 L 143.488281 241.800781 L 148.648438 241.800781 L 148.648438 252.144531 L 153.808594 252.144531 L 153.808594 257.316406 L 158.964844 257.316406 L 158.964844 262.488281 L 169.285156 262.488281 L 169.285156 257.316406 L 200.242188 257.316406 L 200.242188 262.488281 L 231.199219 262.488281 L 231.199219 257.316406 L 236.359375 257.316406 L 236.359375 252.144531 L 246.675781 252.144531 L 246.675781 246.972656 L 251.835938 246.972656 L 251.835938 231.457031 L 246.675781 231.457031 L 246.675781 215.941406 L 241.519531 215.941406 L 241.519531 190.085938 L 246.675781 190.085938 L 246.675781 143.539062 L 251.835938 143.539062 L 251.835938 122.851562 L 246.675781 122.851562 L 246.675781 117.679688 L 241.519531 117.679688 L 241.519531 112.507812 L 231.199219 112.507812 L 231.199219 117.679688 L 226.039062 117.679688 L 226.039062 122.851562 L 210.5625 122.851562 L 210.5625 117.679688 L 184.761719 117.679688 L 184.761719 122.851562 L 179.605469 122.851562 L 179.605469 117.679688 L 174.445312 117.679688 L 174.445312 112.507812 L 153.808594 112.507812 L 153.808594 117.679688 L 148.648438 117.679688 L 148.648438 122.851562 L 143.488281 122.851562 L 143.488281 138.367188 L 148.648438 138.367188 Z M 169.285156 257.328125 L 158.96875 257.328125 L 158.96875 252.15625 L 153.808594 252.15625 L 153.808594 236.640625 L 158.96875 236.640625 L 158.96875 231.46875 L 164.128906 231.46875 L 164.128906 246.984375 L 169.289062 246.984375 L 169.289062 257.328125 Z M 158.964844 231.464844 L 153.808594 231.464844 L 153.808594 226.292969 L 158.964844 226.292969 Z M 153.808594 236.636719 L 148.648438 236.636719 L 148.648438 231.464844 L 153.808594 231.464844 Z M 164.128906 195.257812 L 164.128906 200.429688 L 158.96875 200.429688 L 158.96875 184.917969 L 164.128906 184.917969 Z M 164.128906 200.429688 L 169.285156 200.429688 L 169.285156 205.601562 L 164.128906 205.601562 Z M 169.285156 200.429688 L 169.285156 190.089844 L 174.445312 190.089844 L 174.445312 184.917969 L 184.765625 184.917969 L 184.765625 190.089844 L 179.605469 190.089844 L 179.605469 195.257812 L 174.445312 195.257812 L 174.445312 200.429688 Z M 143.484375 190.085938 L 143.484375 195.257812 L 133.167969 195.257812 L 133.167969 190.085938 Z M 148.644531 190.085938 L 143.484375 190.085938 L 143.484375 184.914062 L 148.644531 184.914062 Z M 153.804688 200.429688 L 158.964844 200.429688 L 158.964844 215.945312 L 153.804688 215.945312 L 153.804688 221.117188 L 143.484375 221.117188 L 143.484375 205.601562 L 153.804688 205.601562 Z M 143.484375 184.914062 L 133.164062 184.914062 L 133.164062 174.570312 L 138.324219 174.570312 L 138.324219 179.742188 L 143.484375 179.742188 Z M 133.164062 200.429688 L 128.003906 200.429688 L 128.003906 195.257812 L 133.164062 195.257812 Z M 195.085938 184.914062 L 200.242188 184.914062 L 200.242188 179.742188 L 189.925781 179.742188 L 189.925781 174.570312 L 195.085938 174.570312 L 195.085938 169.398438 L 179.605469 169.398438 L 179.605469 174.570312 L 184.765625 174.570312 L 184.765625 179.742188 L 174.445312 179.742188 L 174.445312 184.914062 L 169.285156 184.914062 L 169.285156 179.742188 L 158.96875 179.742188 L 158.96875 184.914062 L 148.648438 184.914062 L 148.648438 164.226562 L 153.808594 164.226562 L 153.808594 143.542969 L 158.96875 143.542969 L 158.96875 138.371094 L 164.128906 138.371094 L 164.128906 133.199219 L 169.289062 133.199219 L 169.289062 128.027344 L 184.765625 128.027344 L 184.765625 122.855469 L 210.5625 122.855469 L 210.5625 128.027344 L 226.042969 128.027344 L 226.042969 133.199219 L 231.203125 133.199219 L 231.203125 143.542969 L 236.359375 143.542969 L 236.359375 148.714844 L 241.519531 148.714844 L 241.519531 190.085938 L 236.359375 190.085938 L 236.359375 195.257812 L 220.882812 195.257812 L 220.882812 200.429688 L 179.605469 200.429688 L 179.605469 195.257812 L 184.765625 195.257812 L 184.765625 190.085938 L 189.925781 190.085938 L 189.925781 184.914062 Z M 205.40625 231.464844 L 200.246094 231.464844 L 200.246094 226.292969 L 195.085938 226.292969 L 195.085938 221.121094 L 200.246094 221.121094 L 200.246094 215.949219 L 210.5625 215.949219 L 210.5625 210.777344 L 215.722656 210.777344 L 215.722656 205.605469 L 220.882812 205.605469 L 220.882812 200.433594 L 236.363281 200.433594 L 236.363281 221.121094 L 231.203125 221.121094 L 231.203125 226.292969 L 220.882812 226.292969 L 220.882812 231.464844 Z M 195.085938 231.464844 L 195.085938 236.636719 L 200.242188 236.636719 L 200.242188 241.808594 L 195.085938 241.808594 L 195.085938 252.152344 L 174.445312 252.152344 L 174.445312 246.980469 L 169.285156 246.980469 L 169.285156 205.605469 L 174.445312 205.605469 L 174.445312 200.433594 L 179.605469 200.433594 L 179.605469 205.605469 L 210.5625 205.605469 L 210.5625 210.777344 L 200.242188 210.777344 L 200.242188 215.949219 L 195.085938 215.949219 L 195.085938 221.121094 L 189.925781 221.121094 L 189.925781 231.464844 Z M 241.523438 246.980469 L 241.523438 236.636719 L 246.683594 236.636719 L 246.683594 246.980469 Z M 241.523438 236.636719 L 236.367188 236.636719 L 236.367188 231.464844 L 231.207031 231.464844 L 231.207031 226.292969 L 236.367188 226.292969 L 236.367188 221.121094 L 241.523438 221.121094 Z M 215.722656 241.808594 L 210.5625 241.808594 L 210.5625 236.636719 L 215.722656 236.636719 Z M 210.5625 241.808594 L 210.5625 246.980469 L 215.722656 246.980469 L 215.722656 241.808594 L 220.882812 241.808594 L 220.882812 252.152344 L 215.722656 252.152344 L 215.722656 257.324219 L 200.246094 257.324219 L 200.246094 241.808594 Z M 220.886719 257.324219 L 220.886719 252.152344 L 226.042969 252.152344 L 226.042969 241.808594 L 220.886719 241.808594 L 220.886719 231.464844 L 231.203125 231.464844 L 231.203125 236.636719 L 236.363281 236.636719 L 236.363281 252.152344 L 231.203125 252.152344 L 231.203125 257.324219 Z M 164.125 221.117188 L 158.964844 221.117188 L 158.964844 215.945312 L 164.125 215.945312 Z M 148.644531 231.460938 L 143.484375 231.460938 L 143.484375 226.289062 L 148.644531 226.289062 Z M 143.484375 236.632812 L 143.484375 241.804688 L 133.164062 241.804688 L 133.164062 236.632812 L 138.324219 236.632812 L 138.324219 231.460938 L 143.484375 231.460938 Z M 226.046875 128.015625 L 226.046875 122.84375 L 231.207031 122.84375 L 231.207031 117.671875 L 241.523438 117.671875 L 241.523438 122.84375 L 246.683594 122.84375 L 246.683594 143.53125 L 236.367188 143.53125 L 236.367188 133.1875 L 231.207031 133.1875 L 231.207031 128.015625 Z M 153.804688 138.359375 L 148.644531 138.359375 L 148.644531 122.84375 L 153.804688 122.84375 L 153.804688 117.671875 L 174.441406 117.671875 L 174.441406 122.84375 L 169.285156 122.84375 L 169.285156 128.015625 L 164.125 128.015625 L 164.125 133.1875 L 158.964844 133.1875 L 158.964844 138.359375 Z M 153.804688 138.359375 " fill-opacity="1" fill-rule="evenodd"/></g><path fill="#000000" d="M 164.128906 164.226562 L 164.128906 169.398438 L 174.445312 169.398438 L 174.445312 159.054688 L 164.128906 159.054688 Z M 215.730469 169.398438 L 215.730469 164.226562 L 210.570312 164.226562 L 210.570312 159.054688 L 205.410156 159.054688 L 205.410156 174.570312 L 215.730469 174.570312 Z M 215.730469 169.398438 " fill-opacity="1" fill-rule="evenodd"/><path fill="#000000" d="M 231.210938 128.019531 L 231.210938 133.191406 L 236.371094 133.191406 L 236.371094 138.363281 L 241.527344 138.363281 L 241.527344 128.019531 Z M 164.128906 128.019531 L 169.285156 128.019531 L 169.285156 122.847656 L 158.96875 122.847656 L 158.96875 133.191406 L 164.128906 133.191406 Z M 164.128906 128.019531 " fill-opacity="1" fill-rule="evenodd"/><path fill="#383530" d="M 164.128906 169.398438 L 164.128906 159.054688 L 174.445312 159.054688 L 174.445312 169.398438 Z M 205.410156 169.398438 L 205.410156 159.054688 L 210.570312 159.054688 L 210.570312 164.226562 L 215.726562 164.226562 L 215.726562 174.570312 L 205.410156 174.570312 Z M 200.25 164.226562 L 200.25 174.570312 L 205.410156 174.570312 L 205.410156 179.742188 L 226.046875 179.742188 L 226.046875 159.054688 L 220.886719 159.054688 L 220.886719 153.882812 L 215.726562 153.882812 L 215.726562 148.710938 L 210.570312 148.710938 L 210.570312 153.882812 L 200.25 153.882812 Z M 169.289062 174.570312 L 174.449219 174.570312 L 174.449219 169.398438 L 179.609375 169.398438 L 179.609375 153.882812 L 174.449219 153.882812 L 174.449219 148.714844 L 164.128906 148.714844 L 164.128906 153.882812 L 158.96875 153.882812 L 158.96875 174.570312 Z M 169.289062 174.570312 " fill-opacity="1" fill-rule="evenodd"/><path fill="#ded6c1" d="M 179.609375 195.257812 L 179.609375 200.429688 L 220.890625 200.429688 L 220.890625 195.257812 L 236.371094 195.257812 L 236.371094 190.085938 L 241.527344 190.085938 L 241.527344 179.742188 L 236.371094 179.742188 L 236.371094 190.085938 L 220.890625 190.085938 L 220.890625 195.257812 Z M 179.609375 195.257812 " fill-opacity="1" fill-rule="evenodd"/><path fill="#ded6c1" d="M 174.449219 241.808594 L 169.285156 241.808594 L 169.285156 246.980469 L 174.449219 246.980469 L 174.449219 252.15625 L 195.089844 252.15625 L 195.089844 246.980469 L 174.449219 246.980469 Z M 174.449219 241.808594 " fill-opacity="1" fill-rule="evenodd"/><path fill="#ded6c1" d="M 231.210938 226.292969 L 231.210938 231.464844 L 236.371094 231.464844 L 236.371094 236.636719 L 241.527344 236.636719 L 241.527344 221.121094 L 236.371094 221.121094 L 236.371094 226.292969 Z M 231.210938 226.292969 " fill-opacity="1" fill-rule="evenodd"/><path fill="#383530" d="M 241.527344 236.636719 L 246.691406 236.636719 L 246.691406 246.980469 L 241.527344 246.980469 Z M 241.527344 236.636719 " fill-opacity="1" fill-rule="evenodd"/><path fill="#383530" d="M 236.371094 246.980469 L 236.371094 236.636719 L 231.210938 236.636719 L 231.210938 231.464844 L 220.890625 231.464844 L 220.890625 241.808594 L 226.050781 241.808594 L 226.050781 252.15625 L 220.890625 252.15625 L 220.890625 257.328125 L 231.210938 257.328125 L 231.210938 252.15625 L 236.371094 252.15625 Z M 236.371094 246.980469 " fill-opacity="1" fill-rule="evenodd"/><path fill="#383530" d="M 220.890625 252.15625 L 220.890625 241.808594 L 215.730469 241.808594 L 215.730469 246.980469 L 210.570312 246.980469 L 210.570312 241.808594 L 200.25 241.808594 L 200.25 257.328125 L 215.730469 257.328125 L 215.730469 252.15625 Z M 220.890625 252.15625 " fill-opacity="1" fill-rule="evenodd"/><path fill="#383530" d="M 210.570312 236.636719 L 215.730469 236.636719 L 215.730469 241.808594 L 210.570312 241.808594 Z M 210.570312 236.636719 " fill-opacity="1" fill-rule="evenodd"/><path fill="#383530" d="M 220.890625 226.292969 L 231.210938 226.292969 L 231.210938 221.121094 L 236.371094 221.121094 L 236.371094 200.429688 L 220.890625 200.429688 L 220.890625 205.601562 L 215.730469 205.601562 L 215.730469 210.777344 L 210.570312 210.777344 L 210.570312 215.949219 L 200.25 215.949219 L 200.25 221.121094 L 195.089844 221.121094 L 195.089844 226.292969 L 200.25 226.292969 L 200.25 231.464844 L 220.890625 231.464844 Z M 220.890625 226.292969 " fill-opacity="1" fill-rule="evenodd"/><path fill="#383530" d="M 164.128906 246.980469 L 164.128906 231.464844 L 158.96875 231.464844 L 158.96875 236.636719 L 153.808594 236.636719 L 153.808594 252.15625 L 158.96875 252.15625 L 158.96875 257.328125 L 169.285156 257.328125 L 169.285156 246.980469 Z M 164.128906 246.980469 " fill-opacity="1" fill-rule="evenodd"/><path fill="#383530" d="M 148.648438 221.121094 L 153.808594 221.121094 L 153.808594 215.949219 L 158.96875 215.949219 L 158.96875 200.429688 L 153.808594 200.429688 L 153.808594 205.601562 L 143.488281 205.601562 L 143.488281 221.121094 Z M 148.648438 221.121094 " fill-opacity="1" fill-rule="evenodd"/><path fill="#383530" d="M 158.96875 215.949219 L 164.128906 215.949219 L 164.128906 221.121094 L 158.96875 221.121094 Z M 158.96875 215.949219 " fill-opacity="1" fill-rule="evenodd"/><path fill="#383530" d="M 164.128906 122.847656 L 174.449219 122.847656 L 174.449219 117.671875 L 153.808594 117.671875 L 153.808594 122.847656 L 148.648438 122.847656 L 148.648438 138.363281 L 158.96875 138.363281 L 158.96875 122.847656 Z M 164.128906 122.847656 " fill-opacity="1" fill-rule="evenodd"/><path fill="#383530" d="M 226.050781 122.847656 L 226.050781 128.019531 L 241.527344 128.019531 L 241.527344 138.363281 L 236.371094 138.363281 L 236.371094 143.535156 L 246.691406 143.535156 L 246.691406 122.847656 L 241.527344 122.847656 L 241.527344 117.671875 L 231.210938 117.671875 L 231.210938 122.847656 Z M 226.050781 122.847656 " fill-opacity="1" fill-rule="evenodd"/><path fill="#608537" d="M 143.488281 231.464844 L 138.328125 231.464844 L 138.328125 236.636719 L 133.167969 236.636719 L 133.167969 241.808594 L 143.488281 241.808594 Z M 143.488281 231.464844 " fill-opacity="1" fill-rule="evenodd"/><path fill="#608537" d="M 143.488281 226.292969 L 148.648438 226.292969 L 148.648438 231.464844 L 143.488281 231.464844 Z M 143.488281 226.292969 " fill-opacity="1" fill-rule="evenodd"/><path fill="#608537" d="M 158.96875 195.257812 L 158.96875 200.429688 L 164.128906 200.429688 L 164.128906 184.914062 L 158.96875 184.914062 Z M 158.96875 195.257812 " fill-opacity="1" fill-rule="evenodd"/><path fill="#608537" d="M 164.128906 200.429688 L 169.285156 200.429688 L 169.285156 205.601562 L 164.128906 205.601562 Z M 164.128906 200.429688 " fill-opacity="1" fill-rule="evenodd"/><path fill="#608537" d="M 169.285156 195.257812 L 169.285156 200.429688 L 174.449219 200.429688 L 174.449219 195.257812 L 179.609375 195.257812 L 179.609375 190.085938 L 184.765625 190.085938 L 184.765625 184.914062 L 174.449219 184.914062 L 174.449219 190.085938 L 169.285156 190.085938 Z M 169.285156 195.257812 " fill-opacity="1" fill-rule="evenodd"/><path fill="#608537" d="M 133.167969 190.085938 L 143.488281 190.085938 L 143.488281 195.257812 L 133.167969 195.257812 Z M 133.167969 190.085938 " fill-opacity="1" fill-rule="evenodd"/><path fill="#608537" d="M 128.003906 195.257812 L 133.167969 195.257812 L 133.167969 200.429688 L 128.003906 200.429688 Z M 128.003906 195.257812 " fill-opacity="1" fill-rule="evenodd"/><path fill="#608537" d="M 143.488281 184.914062 L 148.648438 184.914062 L 148.648438 190.085938 L 143.488281 190.085938 Z M 143.488281 184.914062 " fill-opacity="1" fill-rule="evenodd"/><path fill="#608537" d="M 138.328125 184.914062 L 143.488281 184.914062 L 143.488281 179.742188 L 138.328125 179.742188 L 138.328125 174.570312 L 133.167969 174.570312 L 133.167969 184.914062 Z M 138.328125 184.914062 " fill-opacity="1" fill-rule="evenodd"/><path fill="#fff9e9" d="M 169.285156 215.949219 L 169.285156 241.808594 L 174.449219 241.808594 L 174.449219 246.980469 L 195.089844 246.980469 L 195.089844 241.808594 L 200.25 241.808594 L 200.25 236.636719 L 195.089844 236.636719 L 195.089844 231.464844 L 189.929688 231.464844 L 189.929688 221.121094 L 195.089844 221.121094 L 195.089844 215.949219 L 200.25 215.949219 L 200.25 210.777344 L 169.285156 210.777344 Z M 169.285156 215.949219 " fill-opacity="1" fill-rule="evenodd"/><path fill="#383530" d="M 174.449219 210.777344 L 210.570312 210.777344 L 210.570312 205.601562 L 179.609375 205.601562 L 179.609375 200.429688 L 174.449219 200.429688 L 174.449219 205.601562 L 169.285156 205.601562 L 169.285156 210.777344 Z M 174.449219 210.777344 " fill-opacity="1" fill-rule="evenodd"/><path fill="#fff9e9" d="M 179.609375 169.398438 L 174.449219 169.398438 L 174.449219 174.570312 L 158.96875 174.570312 L 158.96875 153.882812 L 164.128906 153.882812 L 164.128906 148.710938 L 174.449219 148.710938 L 174.449219 153.882812 L 179.609375 153.882812 Z M 174.449219 179.742188 L 184.769531 179.742188 L 184.769531 174.570312 L 179.609375 174.570312 L 179.609375 169.398438 L 195.085938 169.398438 L 195.085938 174.570312 L 189.925781 174.570312 L 189.925781 179.742188 L 200.246094 179.742188 L 200.246094 184.914062 L 189.925781 184.914062 L 189.925781 190.085938 L 184.769531 190.085938 L 184.769531 195.257812 L 220.882812 195.257812 L 220.882812 190.085938 L 236.363281 190.085938 L 236.363281 179.742188 L 241.523438 179.742188 L 241.523438 148.714844 L 236.363281 148.714844 L 236.363281 143.542969 L 231.203125 143.542969 L 231.203125 133.199219 L 226.042969 133.199219 L 226.042969 128.027344 L 210.566406 128.027344 L 210.566406 122.855469 L 184.769531 122.855469 L 184.769531 128.027344 L 169.289062 128.027344 L 169.289062 133.199219 L 164.128906 133.199219 L 164.128906 138.371094 L 158.96875 138.371094 L 158.96875 143.542969 L 153.8125 143.542969 L 153.8125 164.226562 L 148.652344 164.226562 L 148.652344 184.914062 L 158.96875 184.914062 L 158.96875 179.742188 L 169.289062 179.742188 L 169.289062 184.914062 L 174.449219 184.914062 Z M 200.25 174.570312 L 200.25 153.882812 L 210.570312 153.882812 L 210.570312 148.714844 L 215.726562 148.714844 L 215.726562 153.882812 L 220.886719 153.882812 L 220.886719 159.054688 L 226.046875 159.054688 L 226.046875 179.742188 L 205.410156 179.742188 L 205.410156 174.570312 Z M 200.25 174.570312 " fill-opacity="1" fill-rule="evenodd"/><path fill="#abce2e" d="M 263.347656 179.523438 L 264.113281 179.523438 L 264.113281 188.265625 L 256.832031 188.265625 L 256.832031 195.476562 L 249.625 195.476562 L 249.625 202.605469 L 242.417969 202.605469 L 242.417969 209.816406 L 235.214844 209.816406 L 235.214844 217.023438 L 227.929688 217.023438 L 227.929688 231.363281 L 212.75 231.363281 L 212.75 237.039062 L 213.519531 237.039062 L 213.519531 245.707031 L 206.3125 245.707031 L 206.3125 252.914062 L 199.027344 252.914062 L 199.027344 260.121094 L 191.824219 260.121094 L 191.824219 267.253906 L 183.082031 267.253906 L 183.082031 258.589844 L 190.289062 258.589844 L 190.289062 244.171875 L 197.496094 244.171875 L 197.496094 237.039062 L 205.546875 237.039062 L 205.546875 230.597656 L 211.984375 230.597656 L 211.984375 222.621094 L 219.191406 222.621094 L 219.191406 208.28125 L 233.679688 208.28125 L 233.679688 193.941406 L 240.886719 193.941406 L 240.886719 186.734375 L 248.09375 186.734375 L 248.09375 179.523438 Z M 321.152344 165.183594 L 298.6875 165.183594 L 298.6875 172.394531 L 284.199219 172.394531 L 284.199219 179.523438 L 269.789062 179.523438 L 269.789062 188.265625 L 307.429688 188.265625 L 307.429688 181.058594 L 321.917969 181.058594 L 321.917969 165.183594 Z M 314.636719 208.28125 L 314.636719 201.074219 L 300.222656 201.074219 L 300.222656 193.941406 L 269.789062 193.941406 L 269.789062 202.605469 L 284.199219 202.605469 L 284.199219 209.816406 L 298.6875 209.816406 L 298.6875 217.023438 L 321.917969 217.023438 L 321.917969 208.28125 Z M 314.636719 208.28125 " fill-opacity="1" fill-rule="nonzero"/><path fill="#f9f2c7" d="M 241.652344 272.929688 L 242.417969 272.929688 L 242.417969 288.804688 L 235.214844 288.804688 L 235.214844 303.144531 L 227.929688 303.144531 L 227.929688 310.351562 L 220.722656 310.351562 L 220.722656 317.5625 L 213.519531 317.5625 L 213.519531 324.691406 L 206.3125 324.691406 L 206.3125 331.902344 L 191.824219 331.902344 L 191.824219 339.109375 L 175.878906 339.109375 L 175.878906 310.351562 L 168.59375 310.351562 L 168.59375 294.476562 L 183.082031 294.476562 L 183.082031 280.136719 L 190.289062 280.136719 L 190.289062 272.929688 L 197.496094 272.929688 L 197.496094 265.722656 L 204.777344 265.722656 L 204.777344 258.589844 L 211.984375 258.589844 L 211.984375 251.378906 L 219.191406 251.378906 L 219.191406 244.171875 L 227.929688 244.171875 L 227.929688 265.722656 L 235.214844 265.722656 L 235.214844 272.929688 Z M 83.421875 258.589844 L 83.421875 251.378906 L 76.21875 251.378906 L 76.21875 237.039062 L 60.269531 237.039062 L 60.269531 258.589844 L 52.988281 258.589844 L 52.988281 288.804688 L 60.269531 288.804688 L 60.269531 303.144531 L 69.011719 303.144531 L 69.011719 288.804688 L 76.21875 288.804688 L 76.21875 281.671875 L 83.421875 281.671875 L 83.421875 274.464844 L 90.707031 274.464844 L 90.707031 258.589844 Z M 154.183594 116.410156 L 162.921875 116.410156 L 162.921875 107.746094 L 146.976562 107.746094 L 146.976562 116.410156 Z M 278.527344 78.988281 L 278.527344 152.378906 L 271.320312 152.378906 L 271.320312 166.71875 L 264.113281 166.71875 L 264.113281 173.925781 L 242.417969 173.925781 L 242.417969 181.058594 L 235.214844 181.058594 L 235.214844 188.265625 L 125.28125 188.265625 L 125.28125 181.058594 L 103.585938 181.058594 L 103.585938 173.925781 L 96.378906 173.925781 L 96.378906 166.71875 L 89.171875 166.71875 L 89.171875 152.378906 L 81.890625 152.378906 L 81.890625 137.960938 L 74.683594 137.960938 L 74.683594 114.878906 L 81.890625 114.878906 L 81.890625 78.988281 L 89.171875 78.988281 L 89.171875 64.648438 L 96.378906 64.648438 L 96.378906 57.4375 L 103.585938 57.4375 L 103.585938 50.308594 L 110.792969 50.308594 L 110.792969 43.097656 L 118.074219 43.097656 L 118.074219 35.890625 L 132.488281 35.890625 L 132.488281 28.757812 L 146.976562 28.757812 L 146.976562 21.550781 L 213.519531 21.550781 L 213.519531 28.757812 L 227.929688 28.757812 L 227.929688 35.890625 L 242.417969 35.890625 L 242.417969 43.097656 L 249.625 43.097656 L 249.625 50.308594 L 256.832031 50.308594 L 256.832031 57.4375 L 264.113281 57.4375 L 264.113281 64.648438 L 271.320312 64.648438 L 271.320312 78.988281 Z M 262.582031 102.070312 L 255.296875 102.070312 L 255.296875 94.9375 L 248.09375 94.9375 L 248.09375 87.730469 L 240.886719 87.730469 L 240.886719 80.519531 L 220.722656 80.519531 L 220.722656 87.730469 L 213.519531 87.730469 L 213.519531 114.878906 L 219.191406 114.878906 L 219.191406 107.746094 L 235.214844 107.746094 L 235.214844 116.410156 L 220.722656 116.410156 L 220.722656 129.292969 L 235.214844 129.292969 L 235.214844 136.425781 L 262.582031 136.425781 Z M 119.609375 109.277344 L 119.609375 129.292969 L 126.8125 129.292969 L 126.8125 136.425781 L 154.183594 136.425781 L 154.183594 129.292969 L 161.386719 129.292969 L 161.386719 122.085938 L 168.59375 122.085938 L 168.59375 87.730469 L 161.386719 87.730469 L 161.386719 80.519531 L 148.507812 80.519531 L 148.507812 87.730469 L 134.019531 87.730469 L 134.019531 94.9375 L 126.8125 94.9375 L 126.8125 102.070312 L 119.609375 102.070312 Z M 211.984375 123.621094 L 204.777344 123.621094 L 204.777344 116.410156 L 191.824219 116.410156 L 191.824219 123.621094 L 184.617188 123.621094 L 184.617188 129.292969 L 191.824219 129.292969 L 191.824219 152.378906 L 183.082031 152.378906 L 183.082031 145.167969 L 177.410156 145.167969 L 177.410156 157.976562 L 219.191406 157.976562 L 219.191406 145.167969 L 213.519531 145.167969 L 213.519531 152.378906 L 204.777344 152.378906 L 204.777344 129.292969 L 211.984375 129.292969 Z M 211.984375 123.621094 " fill-opacity="1" fill-rule="nonzero"/><path fill="#262626" d="M 169.359375 316.027344 L 170.128906 316.027344 L 170.128906 346.242188 L 162.921875 346.242188 L 162.921875 353.449219 L 155.714844 353.449219 L 155.714844 360.660156 L 148.507812 360.660156 L 148.507812 367.792969 L 125.28125 367.792969 L 125.28125 360.660156 L 103.585938 360.660156 L 103.585938 353.449219 L 96.378906 353.449219 L 96.378906 346.242188 L 89.171875 346.242188 L 89.171875 339.109375 L 81.890625 339.109375 L 81.890625 331.902344 L 74.683594 331.902344 L 74.683594 294.476562 L 81.890625 294.476562 L 81.890625 287.269531 L 119.609375 287.269531 L 119.609375 294.476562 L 126.8125 294.476562 L 126.8125 301.609375 L 134.019531 301.609375 L 134.019531 310.351562 L 126.8125 310.351562 L 126.8125 330.367188 L 132.488281 330.367188 L 132.488281 316.027344 L 139.691406 316.027344 L 139.691406 308.820312 L 162.921875 308.820312 L 162.921875 316.027344 Z M 299.457031 294.476562 L 293.015625 294.476562 L 293.015625 287.269531 L 269.789062 287.269531 L 269.789062 294.476562 L 262.582031 294.476562 L 262.582031 308.820312 L 256.832031 308.820312 L 256.832031 288.804688 L 264.113281 288.804688 L 264.113281 280.136719 L 248.09375 280.136719 L 248.09375 294.476562 L 240.886719 294.476562 L 240.886719 308.820312 L 233.679688 308.820312 L 233.679688 316.027344 L 226.398438 316.027344 L 226.398438 323.160156 L 219.191406 323.160156 L 219.191406 331.902344 L 233.679688 331.902344 L 233.679688 339.109375 L 255.296875 339.109375 L 255.296875 346.242188 L 271.320312 346.242188 L 271.320312 339.109375 L 285.734375 339.109375 L 285.734375 331.902344 L 293.015625 331.902344 L 293.015625 324.691406 L 300.222656 324.691406 L 300.222656 294.476562 Z M 240.886719 260.121094 L 240.886719 267.253906 L 264.113281 267.253906 L 264.113281 260.121094 L 271.320312 260.121094 L 271.320312 244.171875 L 264.113281 244.171875 L 264.113281 229.832031 L 240.886719 229.832031 L 240.886719 237.039062 L 233.679688 237.039062 L 233.679688 260.121094 Z M 256.066406 208.28125 L 255.296875 208.28125 L 255.296875 224.15625 L 264.113281 224.15625 L 264.113281 208.28125 Z M 220.722656 209.816406 L 220.722656 202.605469 L 227.929688 202.605469 L 227.929688 193.941406 L 119.609375 193.941406 L 119.609375 186.734375 L 105.117188 186.734375 L 105.117188 179.523438 L 89.171875 179.523438 L 89.171875 193.941406 L 81.890625 193.941406 L 81.890625 215.492188 L 74.683594 215.492188 L 74.683594 224.15625 L 81.890625 224.15625 L 81.890625 245.707031 L 89.171875 245.707031 L 89.171875 252.914062 L 96.378906 252.914062 L 96.378906 267.253906 L 103.585938 267.253906 L 103.585938 274.464844 L 118.074219 274.464844 L 118.074219 281.671875 L 132.488281 281.671875 L 132.488281 288.804688 L 170.128906 288.804688 L 170.128906 281.671875 L 177.410156 281.671875 L 177.410156 251.378906 L 170.128906 251.378906 L 170.128906 244.171875 L 162.921875 244.171875 L 162.921875 237.039062 L 148.507812 237.039062 L 148.507812 229.832031 L 134.019531 229.832031 L 134.019531 217.023438 L 146.976562 217.023438 L 146.976562 224.15625 L 154.183594 224.15625 L 154.183594 231.363281 L 168.59375 231.363281 L 168.59375 238.574219 L 175.878906 238.574219 L 175.878906 245.707031 L 184.617188 245.707031 L 184.617188 238.574219 L 191.824219 238.574219 L 191.824219 231.363281 L 199.027344 231.363281 L 199.027344 224.15625 L 206.3125 224.15625 L 206.3125 217.023438 L 213.519531 217.023438 L 213.519531 209.816406 Z M 74.683594 65.414062 L 74.683594 66.179688 L 83.421875 66.179688 L 83.421875 58.972656 L 90.707031 58.972656 L 90.707031 51.839844 L 97.914062 51.839844 L 97.914062 44.632812 L 105.117188 44.632812 L 105.117188 37.421875 L 112.324219 37.421875 L 112.324219 14.339844 L 97.914062 14.339844 L 97.914062 7.207031 L 81.890625 7.207031 L 81.890625 14.339844 L 67.476562 14.339844 L 67.476562 21.550781 L 60.269531 21.550781 L 60.269531 51.839844 L 67.476562 51.839844 L 67.476562 58.972656 L 74.683594 58.972656 Z M 240.886719 30.292969 L 248.09375 30.292969 L 248.09375 37.421875 L 255.296875 37.421875 L 255.296875 44.632812 L 262.582031 44.632812 L 262.582031 51.839844 L 269.789062 51.839844 L 269.789062 66.179688 L 278.527344 66.179688 L 278.527344 58.972656 L 285.734375 58.972656 L 285.734375 44.632812 L 293.015625 44.632812 L 293.015625 28.757812 L 285.734375 28.757812 L 285.734375 14.339844 L 271.320312 14.339844 L 271.320312 7.207031 L 255.296875 7.207031 L 255.296875 14.339844 L 240.886719 14.339844 L 240.886719 21.550781 L 233.679688 21.550781 L 233.679688 30.292969 Z M 240.886719 30.292969 " fill-opacity="1" fill-rule="nonzero"/><g clip-path="url(#9a6e73e9df)"><path fill="#191918" d="M 328.359375 157.976562 L 291.484375 157.976562 L 291.484375 165.183594 L 278.527344 165.183594 L 278.527344 159.507812 L 285.734375 159.507812 L 285.734375 137.960938 L 293.015625 137.960938 L 293.015625 100.535156 L 285.734375 100.535156 L 285.734375 66.179688 L 293.015625 66.179688 L 293.015625 58.972656 L 300.222656 58.972656 L 300.222656 21.550781 L 293.015625 21.550781 L 293.015625 7.207031 L 278.527344 7.207031 L 278.527344 0 L 248.09375 0 L 248.09375 7.207031 L 233.679688 7.207031 L 233.679688 14.339844 L 226.398438 14.339844 L 226.398438 21.550781 L 220.722656 21.550781 L 220.722656 14.339844 L 199.027344 14.339844 L 199.027344 7.207031 L 161.386719 7.207031 L 161.386719 14.339844 L 139.691406 14.339844 L 139.691406 21.550781 L 119.609375 21.550781 L 119.609375 7.207031 L 105.117188 7.207031 L 105.117188 0 L 67.476562 0 L 67.476562 7.207031 L 60.269531 7.207031 L 60.269531 14.339844 L 52.988281 14.339844 L 52.988281 58.972656 L 60.269531 58.972656 L 60.269531 66.179688 L 67.476562 66.179688 L 67.476562 73.390625 L 74.683594 73.390625 L 74.683594 86.195312 L 67.476562 86.195312 L 67.476562 152.378906 L 74.683594 152.378906 L 74.683594 159.507812 L 81.890625 159.507812 L 81.890625 186.734375 L 74.683594 186.734375 L 74.683594 193.941406 L 67.476562 193.941406 L 67.476562 215.492188 L 60.269531 215.492188 L 60.269531 229.832031 L 52.988281 229.832031 L 52.988281 244.171875 L 45.78125 244.171875 L 45.78125 303.144531 L 52.988281 303.144531 L 52.988281 317.5625 L 60.269531 317.5625 L 60.269531 331.902344 L 67.476562 331.902344 L 67.476562 339.109375 L 74.683594 339.109375 L 74.683594 346.242188 L 81.890625 346.242188 L 81.890625 353.449219 L 89.171875 353.449219 L 89.171875 360.660156 L 96.378906 360.660156 L 96.378906 367.792969 L 110.792969 367.792969 L 110.792969 375 L 155.714844 375 L 155.714844 367.792969 L 162.921875 367.792969 L 162.921875 360.660156 L 170.128906 360.660156 L 170.128906 353.449219 L 177.410156 353.449219 L 177.410156 346.242188 L 199.027344 346.242188 L 199.027344 339.109375 L 226.398438 339.109375 L 226.398438 346.242188 L 240.886719 346.242188 L 240.886719 353.449219 L 285.734375 353.449219 L 285.734375 346.242188 L 293.015625 346.242188 L 293.015625 339.109375 L 300.222656 339.109375 L 300.222656 331.902344 L 307.429688 331.902344 L 307.429688 317.5625 L 314.636719 317.5625 L 314.636719 294.476562 L 307.429688 294.476562 L 307.429688 287.269531 L 300.222656 287.269531 L 300.222656 280.136719 L 293.015625 280.136719 L 293.015625 272.929688 L 271.320312 272.929688 L 271.320312 267.253906 L 278.527344 267.253906 L 278.527344 222.621094 L 271.320312 222.621094 L 271.320312 209.816406 L 276.992188 209.816406 L 276.992188 217.023438 L 291.484375 217.023438 L 291.484375 224.15625 L 329.125 224.15625 L 329.125 201.074219 L 321.917969 201.074219 L 321.917969 193.941406 L 314.636719 193.941406 L 314.636719 188.265625 L 329.125 188.265625 L 329.125 157.976562 Z M 320.382812 172.394531 L 320.382812 179.523438 L 305.894531 179.523438 L 305.894531 186.734375 L 271.320312 186.734375 L 271.320312 181.058594 L 285.734375 181.058594 L 285.734375 173.925781 L 300.222656 173.925781 L 300.222656 166.71875 L 320.382812 166.71875 Z M 299.457031 208.28125 L 285.734375 208.28125 L 285.734375 201.074219 L 271.320312 201.074219 L 271.320312 195.476562 L 298.6875 195.476562 L 298.6875 202.605469 L 313.101562 202.605469 L 313.101562 209.816406 L 320.382812 209.816406 L 320.382812 215.492188 L 300.222656 215.492188 L 300.222656 208.28125 Z M 262.582031 215.492188 L 262.582031 222.621094 L 256.832031 222.621094 L 256.832031 209.816406 L 262.582031 209.816406 Z M 269.789062 251.378906 L 269.789062 258.589844 L 262.582031 258.589844 L 262.582031 265.722656 L 242.417969 265.722656 L 242.417969 258.589844 L 235.214844 258.589844 L 235.214844 238.574219 L 242.417969 238.574219 L 242.417969 231.363281 L 262.582031 231.363281 L 262.582031 245.707031 L 269.789062 245.707031 Z M 256.066406 337.578125 L 235.214844 337.578125 L 235.214844 330.367188 L 220.722656 330.367188 L 220.722656 324.691406 L 227.929688 324.691406 L 227.929688 317.5625 L 235.214844 317.5625 L 235.214844 310.351562 L 242.417969 310.351562 L 242.417969 296.011719 L 249.625 296.011719 L 249.625 281.671875 L 262.582031 281.671875 L 262.582031 287.269531 L 255.296875 287.269531 L 255.296875 310.351562 L 264.113281 310.351562 L 264.113281 296.011719 L 271.320312 296.011719 L 271.320312 288.804688 L 291.484375 288.804688 L 291.484375 296.011719 L 298.6875 296.011719 L 298.6875 323.160156 L 291.484375 323.160156 L 291.484375 330.367188 L 284.199219 330.367188 L 284.199219 337.578125 L 269.789062 337.578125 L 269.789062 344.707031 L 256.832031 344.707031 L 256.832031 337.578125 Z M 197.496094 330.367188 L 190.289062 330.367188 L 190.289062 337.578125 L 177.410156 337.578125 L 177.410156 308.820312 L 170.128906 308.820312 L 170.128906 296.011719 L 184.617188 296.011719 L 184.617188 281.671875 L 191.824219 281.671875 L 191.824219 274.464844 L 199.027344 274.464844 L 199.027344 267.253906 L 206.3125 267.253906 L 206.3125 260.121094 L 213.519531 260.121094 L 213.519531 252.914062 L 220.722656 252.914062 L 220.722656 245.707031 L 226.398438 245.707031 L 226.398438 267.253906 L 233.679688 267.253906 L 233.679688 274.464844 L 240.886719 274.464844 L 240.886719 287.269531 L 233.679688 287.269531 L 233.679688 301.609375 L 226.398438 301.609375 L 226.398438 308.820312 L 219.191406 308.820312 L 219.191406 316.027344 L 211.984375 316.027344 L 211.984375 323.160156 L 204.777344 323.160156 L 204.777344 330.367188 Z M 126.046875 359.125 L 105.117188 359.125 L 105.117188 351.917969 L 97.914062 351.917969 L 97.914062 344.707031 L 90.707031 344.707031 L 90.707031 337.578125 L 83.421875 337.578125 L 83.421875 330.367188 L 76.21875 330.367188 L 76.21875 296.011719 L 83.421875 296.011719 L 83.421875 288.804688 L 118.074219 288.804688 L 118.074219 296.011719 L 125.28125 296.011719 L 125.28125 303.144531 L 132.488281 303.144531 L 132.488281 308.820312 L 125.28125 308.820312 L 125.28125 331.902344 L 134.019531 331.902344 L 134.019531 317.5625 L 141.226562 317.5625 L 141.226562 310.351562 L 161.386719 310.351562 L 161.386719 317.5625 L 168.59375 317.5625 L 168.59375 344.707031 L 161.386719 344.707031 L 161.386719 351.917969 L 154.183594 351.917969 L 154.183594 359.125 L 146.976562 359.125 L 146.976562 366.257812 L 126.8125 366.257812 L 126.8125 359.125 Z M 54.523438 281.671875 L 54.523438 260.121094 L 61.804688 260.121094 L 61.804688 238.574219 L 74.683594 238.574219 L 74.683594 252.914062 L 81.890625 252.914062 L 81.890625 260.121094 L 89.171875 260.121094 L 89.171875 272.929688 L 81.890625 272.929688 L 81.890625 280.136719 L 74.683594 280.136719 L 74.683594 287.269531 L 67.476562 287.269531 L 67.476562 301.609375 L 61.804688 301.609375 L 61.804688 287.269531 L 54.523438 287.269531 Z M 76.21875 130.828125 L 76.21875 116.410156 L 83.421875 116.410156 L 83.421875 80.519531 L 90.707031 80.519531 L 90.707031 66.179688 L 97.914062 66.179688 L 97.914062 58.972656 L 105.117188 58.972656 L 105.117188 51.839844 L 112.324219 51.839844 L 112.324219 44.632812 L 119.609375 44.632812 L 119.609375 37.421875 L 134.019531 37.421875 L 134.019531 30.292969 L 148.507812 30.292969 L 148.507812 23.082031 L 211.984375 23.082031 L 211.984375 30.292969 L 226.398438 30.292969 L 226.398438 37.421875 L 240.886719 37.421875 L 240.886719 44.632812 L 248.09375 44.632812 L 248.09375 51.839844 L 255.296875 51.839844 L 255.296875 58.972656 L 262.582031 58.972656 L 262.582031 66.179688 L 269.789062 66.179688 L 269.789062 80.519531 L 276.992188 80.519531 L 276.992188 150.84375 L 269.789062 150.84375 L 269.789062 165.183594 L 262.582031 165.183594 L 262.582031 172.394531 L 240.886719 172.394531 L 240.886719 179.523438 L 233.679688 179.523438 L 233.679688 186.734375 L 126.8125 186.734375 L 126.8125 179.523438 L 105.117188 179.523438 L 105.117188 172.394531 L 97.914062 172.394531 L 97.914062 165.183594 L 90.707031 165.183594 L 90.707031 150.84375 L 83.421875 150.84375 L 83.421875 136.425781 L 76.21875 136.425781 Z M 249.625 15.875 L 256.832031 15.875 L 256.832031 8.742188 L 269.789062 8.742188 L 269.789062 15.875 L 284.199219 15.875 L 284.199219 30.292969 L 291.484375 30.292969 L 291.484375 43.097656 L 284.199219 43.097656 L 284.199219 57.4375 L 276.992188 57.4375 L 276.992188 64.648438 L 271.320312 64.648438 L 271.320312 50.308594 L 264.113281 50.308594 L 264.113281 43.097656 L 256.832031 43.097656 L 256.832031 35.890625 L 249.625 35.890625 L 249.625 28.757812 L 235.214844 28.757812 L 235.214844 23.082031 L 242.417969 23.082031 L 242.417969 15.875 Z M 90.707031 187.5 L 90.707031 181.058594 L 103.585938 181.058594 L 103.585938 188.265625 L 118.074219 188.265625 L 118.074219 195.476562 L 226.398438 195.476562 L 226.398438 201.074219 L 219.191406 201.074219 L 219.191406 208.28125 L 211.984375 208.28125 L 211.984375 215.492188 L 204.777344 215.492188 L 204.777344 222.621094 L 197.496094 222.621094 L 197.496094 229.832031 L 190.289062 229.832031 L 190.289062 237.039062 L 183.082031 237.039062 L 183.082031 244.171875 L 177.410156 244.171875 L 177.410156 237.039062 L 170.128906 237.039062 L 170.128906 229.832031 L 155.714844 229.832031 L 155.714844 222.621094 L 148.507812 222.621094 L 148.507812 215.492188 L 132.488281 215.492188 L 132.488281 231.363281 L 146.976562 231.363281 L 146.976562 238.574219 L 161.386719 238.574219 L 161.386719 245.707031 L 168.59375 245.707031 L 168.59375 252.914062 L 175.878906 252.914062 L 175.878906 280.136719 L 168.59375 280.136719 L 168.59375 287.269531 L 134.019531 287.269531 L 134.019531 280.136719 L 119.609375 280.136719 L 119.609375 272.929688 L 105.117188 272.929688 L 105.117188 265.722656 L 97.914062 265.722656 L 97.914062 251.378906 L 90.707031 251.378906 L 90.707031 244.171875 L 83.421875 244.171875 L 83.421875 222.621094 L 76.21875 222.621094 L 76.21875 217.023438 L 83.421875 217.023438 L 83.421875 195.476562 L 90.707031 195.476562 Z M 211.984375 237.808594 L 211.984375 244.171875 L 204.777344 244.171875 L 204.777344 251.378906 L 197.496094 251.378906 L 197.496094 258.589844 L 191.824219 258.589844 L 191.824219 245.707031 L 199.027344 245.707031 L 199.027344 238.574219 L 206.3125 238.574219 L 206.3125 231.363281 L 211.984375 231.363281 Z M 184.617188 260.121094 L 190.289062 260.121094 L 190.289062 265.722656 L 184.617188 265.722656 Z M 262.582031 186.734375 L 255.296875 186.734375 L 255.296875 193.941406 L 248.09375 193.941406 L 248.09375 201.074219 L 240.886719 201.074219 L 240.886719 208.28125 L 235.214844 208.28125 L 235.214844 195.476562 L 242.417969 195.476562 L 242.417969 188.265625 L 249.625 188.265625 L 249.625 181.058594 L 262.582031 181.058594 Z M 226.398438 209.816406 L 233.679688 209.816406 L 233.679688 215.492188 L 226.398438 215.492188 L 226.398438 229.832031 L 213.519531 229.832031 L 213.519531 224.15625 L 220.722656 224.15625 L 220.722656 209.816406 Z M 96.378906 8.742188 L 96.378906 15.875 L 110.792969 15.875 L 110.792969 35.890625 L 103.585938 35.890625 L 103.585938 43.097656 L 96.378906 43.097656 L 96.378906 50.308594 L 89.171875 50.308594 L 89.171875 57.4375 L 81.890625 57.4375 L 81.890625 64.648438 L 76.21875 64.648438 L 76.21875 57.4375 L 69.011719 57.4375 L 69.011719 50.308594 L 61.804688 50.308594 L 61.804688 23.082031 L 69.011719 23.082031 L 69.011719 15.875 L 83.421875 15.875 L 83.421875 8.742188 Z M 183.082031 159.507812 L 220.722656 159.507812 L 220.722656 143.636719 L 211.984375 143.636719 L 211.984375 150.84375 L 206.3125 150.84375 L 206.3125 130.828125 L 213.519531 130.828125 L 213.519531 123.621094 L 219.191406 123.621094 L 219.191406 130.828125 L 233.679688 130.828125 L 233.679688 137.960938 L 264.113281 137.960938 L 264.113281 100.535156 L 256.832031 100.535156 L 256.832031 93.40625 L 249.625 93.40625 L 249.625 86.195312 L 242.417969 86.195312 L 242.417969 78.988281 L 219.191406 78.988281 L 219.191406 86.195312 L 211.984375 86.195312 L 211.984375 122.085938 L 206.3125 122.085938 L 206.3125 114.878906 L 190.289062 114.878906 L 190.289062 122.085938 L 183.082031 122.085938 L 183.082031 130.828125 L 190.289062 130.828125 L 190.289062 150.84375 L 184.617188 150.84375 L 184.617188 143.636719 L 175.878906 143.636719 L 175.878906 159.507812 Z M 220.722656 109.277344 L 233.679688 109.277344 L 233.679688 114.878906 L 220.722656 114.878906 Z M 125.28125 130.828125 L 125.28125 137.960938 L 155.714844 137.960938 L 155.714844 130.828125 L 162.921875 130.828125 L 162.921875 123.621094 L 170.128906 123.621094 L 170.128906 86.195312 L 162.921875 86.195312 L 162.921875 78.988281 L 146.976562 78.988281 L 146.976562 86.195312 L 132.488281 86.195312 L 132.488281 93.40625 L 125.28125 93.40625 L 125.28125 100.535156 L 118.074219 100.535156 L 118.074219 130.828125 Z M 161.386719 114.878906 L 148.507812 114.878906 L 148.507812 109.277344 L 161.386719 109.277344 Z M 161.386719 114.878906 " fill-opacity="1" fill-rule="nonzero"/></g></svg>